# xmcd
#
# Track frame offsets: 
#        150
#        15775
#        40450
#        57212
#        78475
#        95747
#        113090
#        130455
#        145292
#        163050
#        182922
#        195935
#        231565
#
# Disc length: 4440 seconds
#
# Revision: 2
# Processed by: cddbd v1.5.1PL0 Copyright (c) Steve Scherf et al.
# Submitted via: ExactAudioCopy v0.95b3
#
DISCID=b111560d
DTITLE=Various Artist - Cyber X #01
DYEAR=2003
DGENRE=Trance
TTITLE0=Cyber X feat. misono - 11 eleven
TTITLE1=Cyber X feat. Ruppina - Little Flower
TTITLE2=Cyber X feat. Maxi Priest - Season in The Sun
TTITLE3=Ayumi Hamasaki - Connected (Push remix)
TTITLE4=Cyber X feat. Rozalla - Everybody's Free (To Feel Good)
TTITLE5=Cyber X feat. Tomiko Van - Drive me nuts
TTITLE6=Cyber X feat. Karyn White - I Don't Know Anybody Else
TTITLE7=Cyber X feat. YURI - the shooting star
TTITLE8=system F - Spread Your Wings
TTITLE9=Cyber X feat. Jody Watley - Waves of love
TTITLE10=Groove Coverage - Moonlight Shadow
TTITLE11=Cyber X feat. KEIKO - be true
TTITLE12=Data Track
EXTD=YEAR: 2003
EXTT0=
EXTT1=
EXTT2=
EXTT3=
EXTT4=
EXTT5=
EXTT6=
EXTT7=
EXTT8=
EXTT9=
EXTT10=
EXTT11=
EXTT12=
PLAYORDER=
